:SAMPLES-PER-SECOND 24
:FULLY-SPECIFIED
:DEGREES
184
root  -0.958971 40.0398 35.5156 2.15259 -7.42621 3.19977
RightUpLeg  -16.1686 -3.20722 -1.21386
RightLeg  10.8679 -17.1989 -3.06588
RightFoot  3.05171 1.61195 -12.5373
RightToes  -2.08645e-008 3.77894e-005 6.81332e-007
Spine  -2.85896 -9.25248 -20.1327
Spine1  5.56979 -13.3036 21.5429
HEad  -32.1361 26.9034 -12.2953
LeftShoulder1  7.51692 -13.4106 -38.3201
LeftArm  14.4486 13.1028 -29.6153
LeftForeArm  167.371 -66.984 -156.713
LeftHand  0.0162496 -4.6678 0.105649
RightShoulder  4.04218 6.6208 34.0362
RightArm  14.1877 -32.1757 27.0735
RightForeArm  118.066 80.1007 105.896
RightHand  0.150099 9.76781 0.739819
LeftUpLeg  5.93573 17.3037 13.1759
LeftLeg  30.698 9.51485 6.39186
LeftFoot  -1.01475 1.49847 -16.4095
LeftToes  1.24767e-006 1.47042e-008 1.32732e-009
185
root  -0.294439 39.9936 34.5265 3.94861 0.802216 3.09686
RightUpLeg  -18.0976 -5.00887 -3.29322
RightLeg  10.0923 -23.2441 -3.36494
RightFoot  5.1946 1.86347 -12.505
RightToes  -2.08645e-008 3.77894e-005 6.81332e-007
Spine  -1.97136 -9.41292 -21.5221
Spine1  5.03256 -13.4143 21.6386
HEad  -31.8848 22.541 -10.6027
LeftShoulder1  7.53319 -13.4495 -38.3136
LeftArm  15.6936 10.6853 -29.4846
LeftForeArm  166.052 -67.566 -155.919
LeftHand  -0.0496387 -4.48392 0.871504
RightShoulder  3.95845 6.53205 33.5582
RightArm  12.0083 -31.2406 28.8027
RightForeArm  115.322 80.2043 103.323
RightHand  0.096053 9.4816 0.347185
LeftUpLeg  6.89257 16.7987 16.3853
LeftLeg  27.2993 10.7636 6.3032
LeftFoot  1.75826 1.86193 -16.2249
LeftToes  1.24767e-006 1.47042e-008 1.32732e-009
186
root  0.615124 39.8416 33.3463 5.32715 7.28043 2.84412
RightUpLeg  -19.899 -6.35978 -5.53407
RightLeg  9.53661 -28.2851 -3.62691
RightFoot  7.97153 2.20072 -12.5441
RightToes  -2.08645e-008 3.77894e-005 6.81332e-007
Spine  -1.63681 -8.63217 -19.3573
Spine1  5.3395 -12.1017 18.9009
HEad  -31.0914 17.6214 -9.11159
LeftShoulder1  7.59821 -13.5319 -38.4736
LeftArm  16.5205 9.57814 -29.6174
LeftForeArm  165.04 -68.1164 -155.159
LeftHand  -0.080552 -4.36823 1.24165
RightShoulder  3.87555 6.48368 32.9206
RightArm  11.7203 -29.6006 29.0983
RightForeArm  114.199 80.2347 102.366
RightHand  0.212032 9.65814 1.21955
LeftUpLeg  6.51693 11.9875 17.0569
LeftLeg  23.846 11.2239 5.70982
LeftFoot  6.17531 2.32257 -15.2776
LeftToes  1.24767e-006 1.47042e-008 1.32732e-009
187
root  1.6961 39.5066 31.9706 6.4187 12.1351 2.39722
RightUpLeg  -22.0051 -7.99858 -7.73475
RightLeg  9.77587 -31.2351 -4.02257
RightFoot  10.472 2.26886 -11.353
RightToes  -2.08645e-008 3.77894e-005 6.81332e-007
Spine  -0.962407 -7.18112 -15.5359
Spine1  5.3842 -9.96423 15.3823
HEad  -30.3298 12.5712 -7.73062
LeftShoulder1  7.48362 -13.4391 -38.0588
LeftArm  16.5881 10.8914 -30.7791
LeftForeArm  164.456 -68.3344 -154.827
LeftHand  -0.0670161 -4.38827 1.07964
RightShoulder  3.8187 6.45372 32.4658
RightArm  12.9515 -27.7354 27.8787
RightForeArm  119.862 79.9199 108.55
RightHand  -0.0312275 9.82365 -0.643807
LeftUpLeg  5.24204 5.48167 16.0771
LeftLeg  21.5669 9.70454 4.52586
LeftFoot  8.89883 2.96118 -16.7948
LeftToes  1.24767e-006 1.47042e-008 1.32732e-009
188
root  2.88542 38.9628 30.4286 7.22717 15.6014 1.59949
RightUpLeg  -24.7459 -10.1332 -9.46124
RightLeg  11.0185 -32.3173 -4.84222
RightFoot  13.0796 2.41221 -10.681
RightToes  -2.08645e-008 3.77894e-005 6.81332e-007
Spine  1.13555 -5.4619 -10.2966
Spine1  3.57798 -7.30994 10.6946
HEad  -29.814 7.64363 -6.06358
LeftShoulder1  7.31428 -13.2708 -37.5143
LeftArm  15.8393 14.1953 -31.6197
LeftForeArm  164.429 -67.8244 -155.426
LeftHand  -0.0546766 -4.35907 0.934132
RightShoulder  3.82275 6.47247 32.4339
RightArm  13.8098 -26.2008 26.0512
RightForeArm  129.566 79.0451 119.094
RightHand  0.151715 9.53238 0.772647
LeftUpLeg  3.6033 1.8035 14.7177
LeftLeg  21.3394 9.23743 4.28408
LeftFoot  3.99161 2.93685 -21.9773
LeftToes  1.24767e-006 1.47042e-008 1.32732e-009
